<svg width="20" height="20" viewBox="0 0 20 20" fill="none" xmlns="http://www.w3.org/2000/svg">
<path fill-rule="evenodd" clip-rule="evenodd" d="M14.4671 2.29169C15.1848 2.29169 15.85 2.58267 16.4216 3.14495C16.8684 3.56221 17.2007 4.04804 17.408 4.57282C17.6065 5.079 17.709 5.62112 17.709 6.19072C17.709 7.0112 17.5197 7.87634 17.1473 8.76261C16.7977 9.58861 16.3072 10.4393 15.6988 11.2867L15.6975 11.2884C15.0973 12.106 14.4196 12.9022 13.6714 13.6561L13.6693 13.6582C12.9144 14.3976 12.117 15.0737 11.2912 15.6796L11.2896 15.6808C10.4543 16.2814 9.59476 16.778 8.73962 17.1408C7.85971 17.5121 7.0003 17.7084 6.17726 17.7084C5.59848 17.7084 5.04775 17.5986 4.54052 17.3932C4.00463 17.1777 3.54613 16.844 3.12957 16.3846C2.88452 16.1177 2.69113 15.8279 2.5356 15.4952C2.37656 15.1551 2.29232 14.7902 2.29232 14.4233C2.29232 14.1495 2.34745 13.8794 2.46064 13.5932L2.46247 13.5888C2.59112 13.2838 2.80705 13.0304 3.09503 12.8357L5.41364 11.1906L5.41488 11.1897C5.63653 11.0348 5.84507 10.9231 6.04029 10.8407L6.04173 10.8401C6.58521 10.6153 7.1424 10.6566 7.58693 10.9278C7.81084 11.0446 8.03448 11.2179 8.25842 11.4411L8.64132 11.8018C8.7844 11.7142 8.99438 11.5651 9.28645 11.3196L9.28796 11.3184C9.60207 11.0594 9.93905 10.7439 10.3496 10.3411C10.6664 10.0179 10.9843 9.66618 11.3249 9.27769C11.5789 8.98003 11.7316 8.7662 11.8209 8.62517L11.4525 8.24122C11.2426 8.03145 11.0694 7.81551 10.9526 7.6067C10.7897 7.3346 10.701 7.04078 10.701 6.7349C10.701 6.50009 10.7574 6.26367 10.8566 6.03431C10.9412 5.82043 11.062 5.61105 11.2154 5.39945L12.8347 3.12125C13.0252 2.83711 13.2859 2.62547 13.5894 2.48554C13.8549 2.36095 14.1645 2.29169 14.4671 2.29169ZM15.4049 4.19782C15.0903 3.89027 14.7835 3.75487 14.4671 3.75487C14.3816 3.75487 14.2919 3.77484 14.2034 3.81317C14.133 3.84635 14.0774 3.8925 14.0284 3.9608L12.4074 6.2484L12.405 6.25166C12.3131 6.37612 12.2459 6.48736 12.2053 6.57962C12.1756 6.65103 12.1661 6.70471 12.1661 6.72095C12.1661 6.74497 12.1723 6.78432 12.212 6.8488L12.2142 6.85238C12.2729 6.95212 12.3657 7.0709 12.4964 7.20138L13.0221 7.74711C13.2361 7.96148 13.3474 8.23767 13.3474 8.54188C13.3474 8.66473 13.3288 8.77477 13.2847 8.9434L13.2814 8.95606L13.1882 9.18851L13.1826 9.19893C13.0258 9.48965 12.7775 9.83037 12.4446 10.2192L12.4438 10.2201C12.0844 10.6351 11.739 11.0081 11.3935 11.36L11.3908 11.3626C10.9479 11.7976 10.5803 12.1364 10.2402 12.4264C9.86307 12.746 9.5152 12.993 9.21131 13.1558L9.2045 13.1594L9.0026 13.249L8.99633 13.2513C8.60622 13.3952 8.10054 13.3218 7.76547 12.9959L7.76452 12.995L7.2333 12.4717L7.23232 12.4707C7.09849 12.3371 6.99131 12.2508 6.88106 12.1957L6.87271 12.1916L6.86476 12.1867C6.81352 12.1551 6.78028 12.1402 6.75932 12.1333C6.74056 12.1271 6.73352 12.1279 6.73227 12.128C6.7293 12.1283 6.72145 12.1293 6.69921 12.1381C6.68767 12.1427 6.67512 12.1482 6.65762 12.1559L6.65521 12.157C6.63918 12.1641 6.62013 12.1724 6.59895 12.1811C6.49714 12.2229 6.3843 12.2849 6.25464 12.3754L3.9353 14.0211L3.93222 14.0232C3.88027 14.0587 3.85137 14.0878 3.83517 14.1073C3.82123 14.1241 3.81376 14.1371 3.80738 14.1496C3.76486 14.2466 3.75046 14.3281 3.75046 14.4093C3.75046 14.558 3.78471 14.7086 3.85569 14.8562L3.85651 14.858C3.95268 15.0628 4.06679 15.2332 4.21257 15.3914L4.21476 15.3938C4.48171 15.6928 4.77067 15.8968 5.09616 16.0306L5.09696 16.0309C5.94797 16.3848 7.00403 16.2849 8.17154 15.7874L8.17296 15.7868C8.92475 15.473 9.68663 15.035 10.4302 14.4921C11.1972 13.9334 11.9439 13.2986 12.6354 12.6154C13.3268 11.9182 13.9558 11.18 14.5084 10.4215C15.0595 9.6652 15.4915 8.91148 15.7991 8.18833C16.0977 7.4839 16.2439 6.80696 16.2439 6.19072C16.2439 5.80342 16.1782 5.44651 16.0424 5.11072L16.0416 5.10876C15.9141 4.78413 15.709 4.48174 15.4083 4.20122L15.4049 4.19782Z" fill="white"/>
</svg>
