<svg width="24" height="24" viewBox="0 0 24 24" fill="none" xmlns="http://www.w3.org/2000/svg">
<path d="M11.5 3.28007C9.57017 3.51351 8.0259 5.07905 7.79644 7.017H7.29331C7.52703 4.80642 9.29074 3.01432 11.5 2.77674V3.28007ZM12.5 2.77635C14.7076 3.01027 16.4727 4.77467 16.7067 6.983H16.2035C15.9739 5.05098 14.4314 3.50911 12.5 3.27953V2.77635ZM16.7067 7.983C16.473 10.1935 14.7092 11.9857 12.5 12.2233V11.7199C14.4299 11.4865 15.9741 9.92095 16.2036 7.983H16.7067ZM7.79653 8.017C8.02612 9.94902 9.56857 11.4909 11.5 11.7205V12.2237C9.2924 11.9897 7.52729 10.2253 7.29334 8.017H7.79653ZM7.5 15.2835C5.8357 15.5079 4.50788 16.8357 4.28347 18.5H3.77944C4.00932 16.5595 5.55946 15.0093 7.5 14.7794V15.2835ZM8.5 15.25V14.75H15.5V15.25H8.5ZM16.5 14.7794C18.4405 15.0093 19.9907 16.5595 20.2206 18.5H19.7165C19.4921 16.8357 18.1643 15.5079 16.5 15.2835V14.7794ZM20.1452 20.5C20.0189 20.7874 19.7874 21.0189 19.5 21.1452V20.5574C19.5201 20.5393 19.5393 20.5201 19.5574 20.5H20.1452ZM5.5 20.75H18.5V21.25H5.5V20.75ZM4.5 20.5574V21.1452C4.2126 21.0189 3.98107 20.7874 3.85478 20.5H4.44258C4.46068 20.5201 4.47985 20.5393 4.5 20.5574Z" fill="#4F6E83" stroke="#4F6E83"/>
</svg>
